<svg xmlns="http://www.w3.org/2000/svg" xmlns:xlink="http://www.w3.org/1999/xlink" viewBox="0 0 300 300.75"><defs><style>.cls-1{fill:url(#Gradiente_sem_nome_30);}.cls-2{fill:url(#Gradiente_sem_nome_30-2);}</style><linearGradient id="Gradiente_sem_nome_30" y1="150.38" x2="200.5" y2="150.38" gradientUnits="userSpaceOnUse"><stop offset="0" stop-color="#f0f"/><stop offset="1" stop-color="#672bb5"/></linearGradient><linearGradient id="Gradiente_sem_nome_30-2" x1="139.97" y1="228.35" x2="300" y2="228.35" xlink:href="#Gradiente_sem_nome_30"/></defs><title>Ativo 2</title><g id="Camada_2" data-name="Camada 2"><g id="Camada_7" data-name="Camada 7"><path class="cls-1" d="M200.5,50a49.8,49.8,0,0,1-4.9,21.61l0,.06L194.9,73l0,.07L143.54,175.6,95.07,272.43l-.54,1.09a50.14,50.14,0,0,1-32,25.66l-.27.07a50,50,0,0,1-56.86-71l.11-.22,100-199.66.43-.87A50,50,0,0,1,200.5,50Z"/><path class="cls-2" d="M300,250.75A50,50,0,0,1,205.19,273l-.26-.53h0a11.24,11.24,0,0,0-12.83-5.91l-43.92,11.07a6.59,6.59,0,0,1-7.5-9.34l42-83.92,0-.06.67-1.33,0-.07a50.13,50.13,0,0,1,31.67-25.3l.18,0,.3-.08a50.11,50.11,0,0,1,56.75,25.73c.19.36.37.73.54,1.09L294.53,228l.28.56A49.78,49.78,0,0,1,300,250.75Z"/></g></g></svg>